# xmcd CD database file generated by MAGIX-FreeDB-MP3_Maker_12 v2.0beta1
# 
# Track frame offsets:
#      150
#      11643
#      25204
#      37172
#      47840
#      58191
#      71256
#      84794
#      97683
#      110907
#      124325
#      135575
#      148172
#      161893
#      171063
#      182707
#      201435
# 
# Disc length: 2875 seconds
# 
# Revision: 0 
# Processed by: cddbd v1.5.2PL0 Copyright (c) Steve Scherf et al.
# Submitted via: MAGIX-FreeDB-MP3_Maker_12 v2.0beta1
# 
DISCID=f40b3911
DTITLE=Frankie Laine - There Must Be A Reason
DYEAR=2004
DGENRE=
TTITLE0=Frankie Laine - Mule Train
TTITLE1=Frankie Laine - That Lucky Old Sun
TTITLE2=Frankie Laine - The Cry Of The Wild Goose
TTITLE3=Frankie Laine - Sixteen Tons
TTITLE4=Frankie Laine - Hey, Good Looking
TTITLE5=Frankie Laine - Mam`selle
TTITLE6=Frankie Laine - Georgia On My Mind
TTITLE7=Frankie Laine - Granada
TTITLE8=Frankie Laine - Music, Maestro, Please
TTITLE9=Frankie Laine - I`m Gonna Live Till I Die
TTITLE10=Frankie Laine - Answer Me
TTITLE11=Frankie Laine - On The Sunny Side Of The Street
TTITLE12=Frankie Laine - Still There`s You
TTITLE13=Frankie Laine - Rawhide
TTITLE14=Frankie Laine - Strange Lady In Town
TTITLE15=Frankie Laine - Old Dog`s Children And Watermelon Wine
TTITLE16=Frankie Laine - There Must Be A Reason
EXTD=
EXTT0=
EXTT1=
EXTT2=
EXTT3=
EXTT4=
EXTT5=
EXTT6=
EXTT7=
EXTT8=
EXTT9=
EXTT10=
EXTT11=
EXTT12=
EXTT13=
EXTT14=
EXTT15=
EXTT16=
PLAYORDER=
